<svg xmlns="http://www.w3.org/2000/svg" viewBox="0 0 100 100">
  <defs>
    <linearGradient id="copper" x1="0%" y1="0%" x2="100%" y2="100%">
      <stop offset="0%" style="stop-color:#cd7f32;stop-opacity:1" />
      <stop offset="50%" style="stop-color:#8b4513;stop-opacity:1" />
      <stop offset="100%" style="stop-color:#4b3621;stop-opacity:1" />
    </linearGradient>
  </defs>
  <path d="M50 20c-1 0-2 5-2 15s1 45 2 45 2-35 2-45-1-15-2-15zM48 38c-15-5-35-5-35 2s15 8 35 3M52 38c15-5 35-5 35 2s-15 8-35 3M48 48c-12-4-28-4-28 2s12 6 28 2M52 48c12-4 28-4 28 2s-12 6-28 2" fill="url(#copper)"/>
</svg>